<svg xmlns="http://www.w3.org/2000/svg" viewBox="0 0 600 600" width="600" height="600" role="img" aria-label="AquaBro avatar">
  <defs>
    <clipPath id="a-frame"><circle cx="300" cy="300" r="286"></circle></clipPath>
    <radialGradient id="a-bg" cx="50%" cy="38%" r="75%">
      <stop offset="0%" stop-color="#5cf0ec"></stop><stop offset="100%" stop-color="#1fcfca"></stop>
    </radialGradient>
    <linearGradient id="a-cap" x1="0" y1="0" x2="0" y2="1">
      <stop offset="0%" stop-color="#222831"></stop><stop offset="100%" stop-color="#11151b"></stop>
    </linearGradient>
    <linearGradient id="a-can" x1="0" y1="0" x2="0" y2="1">
      <stop offset="0%" stop-color="#3afff0"></stop><stop offset="100%" stop-color="#13c7c0"></stop>
    </linearGradient>
    <clipPath id="a-eyeL"><path d="M234 309 Q250 299 264 300 Q278 301 288 310 Q276 320 261 320 Q247 320 234 309 Z"></path></clipPath>
    <clipPath id="a-eyeR"><path d="M312 310 Q322 301 336 300 Q350 299 366 309 Q354 320 339 320 Q324 320 312 310 Z"></path></clipPath>
  </defs>

  <circle cx="300" cy="300" r="298" fill="#0c1519"></circle>
  <circle cx="300" cy="300" r="286" fill="url(#a-bg)"></circle>
  <circle cx="300" cy="300" r="286" fill="#0c1519" opacity="0.10" style="mix-blend-mode:multiply"></circle>

  <g clip-path="url(#a-frame)">
    <ellipse cx="300" cy="566" rx="320" ry="130" fill="#16bdb7"></ellipse>

    
    <g transform="rotate(-10 412 540)">
      <rect x="380" y="486" width="64" height="120" rx="12" fill="url(#a-can)" stroke="#0c3a38" stroke-width="6"></rect>
      <rect x="380" y="486" width="64" height="14" rx="7" fill="#cfeeec" stroke="#0c3a38" stroke-width="6"></rect>
      <path d="M416 506 L398 540 L412 540 L404 568 L432 528 L416 528 Z" fill="#11151b"></path>
      <text x="412" y="592" font-family="Arial, sans-serif" font-weight="800" font-size="13" fill="#0c3a38" text-anchor="middle">BOOST</text>
    </g>

    
    <g stroke="#0c3a38" stroke-width="7" stroke-linejoin="round">
      <path d="M300 452 C176 452 104 510 84 600 L516 600 C496 510 424 452 300 452 Z" fill="#eef2f1"></path>
      <path d="M300 452 C236 452 196 478 178 520 L196 600 L300 600 Z" fill="#dadedd" stroke="none"></path>
      
      <path d="M250 458 L240 600 L210 600 L222 470 Z" fill="#eef2f1"></path>
      <path d="M350 458 L360 600 L390 600 L378 470 Z" fill="#eef2f1"></path>
    </g>
    
    <path d="M262 470 C270 510 286 540 300 540 C314 540 330 510 338 470 C322 482 278 482 262 470 Z" fill="#d8a878" stroke="#0c3a38" stroke-width="5" stroke-linejoin="round"></path>
    <path d="M300 478 L300 532" stroke="#b8865c" stroke-width="4"></path>

    
    <path d="M260 396 L260 466 Q300 494 340 466 L340 396 Z" fill="#e0a878" stroke="#0c3a38" stroke-width="7" stroke-linejoin="round"></path>
    <path d="M260 422 Q300 446 340 422 L340 396 L260 396 Z" fill="#cf935f" stroke="none"></path>
    <path d="M276 430 L276 466 M324 430 L324 466" stroke="#c48a58" stroke-width="4" stroke-linecap="round"></path>

    
    <path d="M196 306 q-22 2 -20 26 q3 22 24 22 q10 -2 10 -14 z" fill="#e0a878" stroke="#0c3a38" stroke-width="7" stroke-linejoin="round"></path>
    <path d="M404 306 q22 2 20 26 q-3 22 -24 22 q-10 -2 -10 -14 z" fill="#e0a878" stroke="#0c3a38" stroke-width="7" stroke-linejoin="round"></path>

    
    <path d="M300 190 C236 190 202 236 202 302 C202 346 216 386 248 408 C270 422 330 422 352 408 C384 386 398 346 398 302 C398 236 364 190 300 190 Z" fill="#e0a878" stroke="#0c3a38" stroke-width="7" stroke-linejoin="round"></path>
    <path d="M248 408 C222 388 210 352 208 316 C222 352 248 376 274 388 C300 400 330 392 356 380 C384 368 392 352 392 316 C390 352 378 388 352 408 C330 422 270 422 248 408 Z" fill="#cf935f" stroke="none"></path>
    <path d="M256 412 Q300 432 344 412 Q300 424 256 412 Z" fill="#c48a58" stroke="none" opacity="0.45"></path>

    
    <path d="M226 282 Q254 272 286 282" fill="none" stroke="#3a2c1c" stroke-width="7" stroke-linecap="round"></path>
    <path d="M314 282 Q346 272 374 282" fill="none" stroke="#3a2c1c" stroke-width="7" stroke-linecap="round"></path>

    
    <path d="M234 309 Q250 299 264 300 Q278 301 288 310 Q276 320 261 320 Q247 320 234 309 Z" fill="#fbfdfd"></path>
    <path d="M312 310 Q322 301 336 300 Q350 299 366 309 Q354 320 339 320 Q324 320 312 310 Z" fill="#fbfdfd"></path>
    <g clip-path="url(#a-eyeL)"><circle cx="263" cy="310" r="11" fill="#6a8a96"></circle><circle cx="263" cy="310" r="5.5" fill="#160f08"></circle><circle cx="260" cy="306" r="3.2" fill="#fff"></circle></g>
    <g clip-path="url(#a-eyeR)"><circle cx="337" cy="310" r="11" fill="#6a8a96"></circle><circle cx="337" cy="310" r="5.5" fill="#160f08"></circle><circle cx="334" cy="306" r="3.2" fill="#fff"></circle></g>
    <path d="M232 308 Q250 299 264 300 Q281 301 292 309" fill="none" stroke="#0c3a38" stroke-width="5.5" stroke-linecap="round"></path>
    <path d="M308 309 Q320 301 336 300 Q352 299 370 308" fill="none" stroke="#0c3a38" stroke-width="5.5" stroke-linecap="round"></path>

    
    <path d="M298 332 C293 344 287 354 294 360 Q300 365 312 357" fill="none" stroke="#c48a58" stroke-width="5" stroke-linecap="round" stroke-linejoin="round"></path>

    
    <path d="M250 378 Q300 426 350 378 Q300 396 250 378 Z" fill="#5a2530"></path>
    <path d="M252 380 Q300 420 348 380 Q300 396 252 380 Z" fill="#ffffff"></path>
    <path d="M276 384 L276 412 M300 386 L300 416 M324 384 L324 412" stroke="#dfe6ea" stroke-width="2.5"></path>
    <path d="M250 378 Q300 426 350 378" fill="none" stroke="#0c3a38" stroke-width="6" stroke-linejoin="round"></path>
    <path d="M252 380 Q300 390 348 380" fill="none" stroke="#0c3a38" stroke-width="4"></path>

    
    <path d="M188 250 C188 168 244 130 300 130 C356 130 412 168 412 250 C412 232 392 228 300 228 C208 228 192 232 188 250 Z" fill="url(#a-cap)" stroke="#0c3a38" stroke-width="7" stroke-linejoin="round"></path>
    
    <path d="M196 254 C220 234 256 226 300 226 C344 226 380 234 404 254 L398 268 C378 250 344 242 300 242 C256 242 222 250 202 268 Z" fill="#2b323c" stroke="#0c3a38" stroke-width="6" stroke-linejoin="round"></path>
    
    <rect x="276" y="232" width="48" height="26" rx="6" fill="#3a424d" stroke="#0c3a38" stroke-width="5"></rect>
    <circle cx="288" cy="245" r="3.5" fill="#11151b"></circle><circle cx="300" cy="245" r="3.5" fill="#11151b"></circle><circle cx="312" cy="245" r="3.5" fill="#11151b"></circle>
    
    <path d="M300 132 L300 220 M250 142 C238 170 236 200 244 224 M350 142 C362 170 364 200 356 224" fill="none" stroke="#171c23" stroke-width="5"></path>
    <path d="M232 168 C252 150 280 142 300 142" fill="none" stroke="#3a424d" stroke-width="6" stroke-linecap="round"></path>
    
    <path d="M312 170 L296 196 L308 196 L300 216 L326 186 L312 186 Z" fill="#28e0dc"></path>

    
    <g stroke="#0c3a38" stroke-width="5" stroke-linejoin="round">
      <path d="M226 244 Q236 262 262 260 Q286 258 290 244 Q258 238 226 244 Z" fill="#ff5a8a"></path>
      <path d="M310 244 Q314 258 338 260 Q364 262 374 244 Q342 238 310 244 Z" fill="#ff5a8a"></path>
      <path d="M290 246 L310 246"></path>
    </g>
    <path d="M234 248 Q250 244 264 248 M316 248 Q332 244 348 248" fill="none" stroke="#ffd0e0" stroke-width="3" stroke-linecap="round" opacity="0.8"></path>
  </g>
</svg>