<svg xmlns="http://www.w3.org/2000/svg" viewBox="0 0 600 600" width="600" height="600" role="img" aria-label="Frau Goldberg avatar">
  <defs>
    <clipPath id="g-frame"><circle cx="300" cy="300" r="286"></circle></clipPath>
    <radialGradient id="g-bg" cx="50%" cy="38%" r="75%">
      <stop offset="0%" stop-color="#ffd877"></stop><stop offset="100%" stop-color="#f0bd3e"></stop>
    </radialGradient>
    <linearGradient id="g-hair" x1="0" y1="0" x2="0" y2="1">
      <stop offset="0%" stop-color="#3a2c22"></stop><stop offset="100%" stop-color="#1d1510"></stop>
    </linearGradient>
    <linearGradient id="g-lens" x1="0" y1="0" x2="0" y2="1">
      <stop offset="0%" stop-color="#46525e"></stop><stop offset="55%" stop-color="#222831"></stop><stop offset="100%" stop-color="#161a20"></stop>
    </linearGradient>
    <radialGradient id="g-cheek" cx="50%" cy="50%" r="50%">
      <stop offset="0%" stop-color="#e69a86" stop-opacity="0.5"></stop><stop offset="100%" stop-color="#e69a86" stop-opacity="0"></stop>
    </radialGradient>
  </defs>

  <circle cx="300" cy="300" r="298" fill="#0c1519"></circle>
  <circle cx="300" cy="300" r="286" fill="url(#g-bg)"></circle>
  <circle cx="300" cy="300" r="286" fill="#0c1519" opacity="0.10" style="mix-blend-mode:multiply"></circle>

  <g clip-path="url(#g-frame)">
    <ellipse cx="300" cy="566" rx="320" ry="130" fill="#e0ab30"></ellipse>

    
    <path d="M300 168 C224 168 184 226 184 308 C184 360 196 410 220 452 L256 430 C236 388 232 330 244 290 C268 304 332 304 356 290 C368 330 364 388 344 430 L380 452 C404 410 416 360 416 308 C416 226 376 168 300 168 Z" fill="url(#g-hair)" stroke="#15100b" stroke-width="7" stroke-linejoin="round"></path>

    
    <g stroke="#0e0e12" stroke-width="7" stroke-linejoin="round">
      <path d="M300 462 C190 462 120 514 96 600 L504 600 C480 514 410 462 300 462 Z" fill="#1c1f26"></path>
      <path d="M300 462 C248 462 212 482 194 518 L208 600 L300 600 Z" fill="#141519" stroke="none"></path>
      
      <path d="M262 470 Q300 500 338 470 L338 452 Q300 478 262 452 Z" fill="#2b2e36"></path>
      
      <path d="M300 472 L236 600 L274 600 L300 514 Z" fill="#2e323b"></path>
      <path d="M300 472 L364 600 L326 600 L300 514 Z" fill="#23262d"></path>
    </g>

    
    <g transform="rotate(-8 400 540)">
      <path d="M372 512 L420 512 L414 600 L378 600 Z" fill="#bfe6c2" stroke="#1f3a26" stroke-width="5" stroke-linejoin="round"></path>
      <path d="M374 548 L418 548 L414 600 L378 600 Z" fill="#7cc05a"></path>
      <rect x="370" y="502" width="52" height="12" rx="4" fill="#e8f3ea" stroke="#1f3a26" stroke-width="5"></rect>
      <rect x="398" y="470" width="8" height="44" rx="4" fill="#ff6a8a" stroke="#1f3a26" stroke-width="4"></rect>
    </g>

    
    <path d="M270 410 L270 468 Q300 488 330 468 L330 410 Z" fill="#e2b894" stroke="#241a16" stroke-width="7" stroke-linejoin="round"></path>
    <path d="M270 432 Q300 452 330 432 L330 410 L270 410 Z" fill="#cf9f7d" stroke="none"></path>

    
    <path d="M196 306 q-22 2 -20 26 q3 22 24 22 q10 -2 10 -14 z" fill="#e2b894" stroke="#241a16" stroke-width="7" stroke-linejoin="round"></path>
    <path d="M404 306 q22 2 20 26 q-3 22 -24 22 q-10 -2 -10 -14 z" fill="#e2b894" stroke="#241a16" stroke-width="7" stroke-linejoin="round"></path>
    <circle cx="190" cy="352" r="5" fill="#e0b53a" stroke="#241a16" stroke-width="2.5"></circle>
    <circle cx="410" cy="352" r="5" fill="#e0b53a" stroke="#241a16" stroke-width="2.5"></circle>

    
    <path d="M300 184 C236 184 200 232 200 300 C200 344 214 382 240 406 C260 420 340 420 360 406 C386 382 400 344 400 300 C400 232 364 184 300 184 Z" fill="#ecc8a8" stroke="#241a16" stroke-width="7" stroke-linejoin="round"></path>
    <path d="M240 406 C216 386 206 350 204 314 C218 350 244 374 270 386 C300 398 330 390 356 378 C384 366 392 348 396 314 C394 350 384 386 360 406 C340 420 260 420 240 406 Z" fill="#e2b894" stroke="none"></path>
    <ellipse cx="240" cy="360" rx="20" ry="12" fill="url(#g-cheek)"></ellipse>
    <ellipse cx="360" cy="360" rx="20" ry="12" fill="url(#g-cheek)"></ellipse>

    
    <path d="M200 300 C200 226 240 184 300 184 C360 184 400 226 400 300 C402 256 384 318 360 360 L348 356 C360 320 352 268 340 248 C314 234 286 234 258 250 C246 270 240 322 252 358 L240 360 C216 318 198 256 200 300 Z" fill="url(#g-hair)" stroke="#15100b" stroke-width="7" stroke-linejoin="round"></path>
    <path d="M258 250 C286 232 322 234 344 252" fill="none" stroke="#5a4636" stroke-width="5" stroke-linecap="round"></path>
    <path d="M300 188 C272 190 252 206 246 232" fill="none" stroke="#4a3828" stroke-width="5" stroke-linecap="round"></path>

    
    <path d="M228 282 Q254 274 282 282" fill="none" stroke="#2a2018" stroke-width="6" stroke-linecap="round"></path>
    <path d="M318 282 Q346 274 372 282" fill="none" stroke="#2a2018" stroke-width="6" stroke-linecap="round"></path>

    
    <g stroke="#0e0e12" stroke-width="6" stroke-linejoin="round">
      <path d="M222 300 Q230 332 264 334 Q296 334 300 308 Q304 334 336 334 Q370 332 378 300 Q352 292 300 292 Q248 292 222 300 Z" fill="url(#g-lens)"></path>
      <path d="M222 300 L202 294 M378 300 L398 294"></path>
    </g>
    
    <path d="M236 304 Q252 298 270 302" fill="none" stroke="#8a96a4" stroke-width="4" stroke-linecap="round" opacity="0.7"></path>
    <path d="M318 304 Q334 298 352 302" fill="none" stroke="#8a96a4" stroke-width="4" stroke-linecap="round" opacity="0.7"></path>
    <ellipse cx="248" cy="316" rx="9" ry="5" fill="#5a6675" opacity="0.6"></ellipse>
    <ellipse cx="332" cy="316" rx="9" ry="5" fill="#5a6675" opacity="0.6"></ellipse>

    
    <path d="M298 338 C293 348 288 356 295 361 Q300 365 311 358" fill="none" stroke="#d9a980" stroke-width="5" stroke-linecap="round" stroke-linejoin="round"></path>

    
    <path d="M266 388 Q288 396 304 394 Q326 392 340 380" fill="none" stroke="#b5435a" stroke-width="6" stroke-linecap="round"></path>
    <path d="M340 380 q5 2 3 8" fill="none" stroke="#b5435a" stroke-width="5" stroke-linecap="round"></path>
    <path d="M280 398 Q302 406 326 396" fill="none" stroke="#d98a96" stroke-width="4" stroke-linecap="round"></path>
  </g>
</svg>