<svg xmlns="http://www.w3.org/2000/svg" viewBox="0 0 600 600" width="600" height="600" role="img" aria-label="Aktivistin Lena avatar">
  <defs>
    <clipPath id="l-frame"><circle cx="300" cy="300" r="286"></circle></clipPath>
    <radialGradient id="l-bg" cx="50%" cy="38%" r="75%">
      <stop offset="0%" stop-color="#92d678"></stop><stop offset="100%" stop-color="#6fbf54"></stop>
    </radialGradient>
    <linearGradient id="l-dread" x1="0" y1="0" x2="0" y2="1">
      <stop offset="0%" stop-color="#4a3322"></stop><stop offset="100%" stop-color="#2e2016"></stop>
    </linearGradient>
    <radialGradient id="l-cheek" cx="50%" cy="50%" r="50%">
      <stop offset="0%" stop-color="#c06a4e" stop-opacity="0.5"></stop><stop offset="100%" stop-color="#c06a4e" stop-opacity="0"></stop>
    </radialGradient>
    <clipPath id="l-eyeL"><path d="M234 308 Q250 297 264 298 Q278 299 288 309 Q276 321 261 321 Q247 321 234 308 Z"></path></clipPath>
    <clipPath id="l-eyeR"><path d="M312 309 Q322 299 336 298 Q350 297 366 308 Q354 321 339 321 Q324 321 312 309 Z"></path></clipPath>
  </defs>

  <circle cx="300" cy="300" r="298" fill="#0c1519"></circle>
  <circle cx="300" cy="300" r="286" fill="url(#l-bg)"></circle>
  <circle cx="300" cy="300" r="286" fill="#0c1519" opacity="0.10" style="mix-blend-mode:multiply"></circle>

  <g clip-path="url(#l-frame)">
    <ellipse cx="300" cy="566" rx="320" ry="130" fill="#5fac46"></ellipse>

    
    <g transform="rotate(10 430 420)">
      <rect x="424" y="150" width="14" height="320" rx="6" fill="#9c6b3a" stroke="#241a16" stroke-width="5"></rect>
      <rect x="338" y="150" width="190" height="120" rx="8" fill="#f3efe2" stroke="#241a16" stroke-width="6"></rect>
      <text x="433" y="186" font-family="Arial, sans-serif" font-weight="800" font-size="26" fill="#1f7a3a" text-anchor="middle">SHRIMPS</text>
      <text x="433" y="216" font-family="Arial, sans-serif" font-weight="800" font-size="26" fill="#1f7a3a" text-anchor="middle">SIND</text>
      <text x="433" y="246" font-family="Arial, sans-serif" font-weight="800" font-size="26" fill="#c0202e" text-anchor="middle">FREUNDE</text>
    </g>

    
    <g fill="url(#l-dread)" stroke="#241a16" stroke-width="6" stroke-linejoin="round">
      <path d="M214 250 C176 300 176 400 196 470 L228 462 C214 410 214 340 232 290 Z"></path>
      <path d="M386 250 C424 300 424 400 404 470 L372 462 C386 410 386 340 368 290 Z"></path>
      <path d="M232 280 C214 340 214 420 230 482 L256 474 C244 420 244 350 252 300 Z"></path>
      <path d="M368 280 C386 340 386 420 370 482 L344 474 C356 420 356 350 348 300 Z"></path>
    </g>
    <g stroke="#5e4630" stroke-width="3" stroke-linecap="round" opacity="0.7">
      <path d="M204 300 q6 30 4 60 M214 360 q4 30 6 50"></path>
      <path d="M396 300 q-6 30 -4 60 M386 360 q-4 30 -6 50"></path>
    </g>

    
    <g stroke="#2c3a22" stroke-width="7" stroke-linejoin="round">
      <path d="M300 462 C190 462 120 514 96 600 L504 600 C480 514 410 462 300 462 Z" fill="#7d8a4e"></path>
      <path d="M300 462 C248 462 212 482 194 518 L208 600 L300 600 Z" fill="#6a7642" stroke="none"></path>
      <path d="M268 466 Q300 492 332 466 L324 458 Q300 478 276 458 Z" fill="#5e6a38"></path>
    </g>
    
    <g transform="translate(298 556)">
      <path d="M22 -6 C8 -18 -14 -16 -22 -2 C-28 8 -24 22 -10 24 C-20 18 -18 6 -10 0 C-2 -6 12 -6 20 0 Z" fill="#e98a5e" stroke="#2c3a22" stroke-width="4" stroke-linejoin="round"></path>
      <path d="M22 -6 L34 -12 M22 -6 L34 0 M22 -6 L30 6" stroke="#e98a5e" stroke-width="5" stroke-linecap="round"></path>
      <circle cx="-16" cy="-2" r="2.6" fill="#2c3a22"></circle>
      <path d="M-22 -4 l-9 -7 M-21 1 l-10 -2" stroke="#2c3a22" stroke-width="2" stroke-linecap="round"></path>
    </g>

    
    <path d="M270 410 L270 470 Q300 492 330 470 L330 410 Z" fill="#c98f63" stroke="#241a16" stroke-width="7" stroke-linejoin="round"></path>
    <path d="M270 432 Q300 452 330 432 L330 410 L270 410 Z" fill="#b27c52" stroke="none"></path>

    
    <path d="M196 306 q-22 2 -20 26 q3 22 24 22 q10 -2 10 -14 z" fill="#d8a87e" stroke="#241a16" stroke-width="7" stroke-linejoin="round"></path>
    <path d="M404 306 q22 2 20 26 q-3 22 -24 22 q-10 -2 -10 -14 z" fill="#d8a87e" stroke="#241a16" stroke-width="7" stroke-linejoin="round"></path>
    <circle cx="190" cy="352" r="6" fill="none" stroke="#e0b53a" stroke-width="3"></circle>
    <circle cx="410" cy="352" r="6" fill="none" stroke="#e0b53a" stroke-width="3"></circle>

    
    <path d="M300 184 C236 184 200 232 200 300 C200 344 214 382 242 406 C262 420 338 420 358 406 C386 382 400 344 400 300 C400 232 364 184 300 184 Z" fill="#d8a87e" stroke="#241a16" stroke-width="7" stroke-linejoin="round"></path>
    <path d="M242 406 C218 386 208 350 206 314 C220 350 246 374 272 386 C300 398 328 390 354 378 C382 366 390 348 394 314 C392 350 382 386 358 406 C338 420 262 420 242 406 Z" fill="#c79065" stroke="none"></path>
    <ellipse cx="240" cy="356" rx="21" ry="13" fill="url(#l-cheek)"></ellipse>
    <ellipse cx="360" cy="356" rx="21" ry="13" fill="url(#l-cheek)"></ellipse>

    
    <path d="M198 248 C198 176 244 136 300 136 C356 136 402 176 402 248 Z" fill="#2f6b3a" stroke="#241a16" stroke-width="7" stroke-linejoin="round"></path>
    <g stroke="#256030" stroke-width="5" fill="none" stroke-linecap="round">
      <path d="M236 150 C228 180 226 212 232 244"></path>
      <path d="M300 140 L300 244"></path>
      <path d="M364 150 C372 180 374 212 368 244"></path>
    </g>
    <path d="M194 236 Q300 254 406 236 L406 256 Q300 274 194 256 Z" fill="#3a7f47" stroke="#241a16" stroke-width="7" stroke-linejoin="round"></path>
    <g stroke="#256030" stroke-width="3.5" stroke-linecap="round">
      <path d="M224 248 l1 14"></path><path d="M260 254 l1 15"></path><path d="M300 256 l0 16"></path><path d="M340 254 l-1 15"></path><path d="M376 248 l-1 14"></path>
    </g>
    
    <circle cx="300" cy="134" r="15" fill="#d9b24a" stroke="#241a16" stroke-width="6"></circle>

    
    <path d="M228 276 Q254 266 284 276" fill="none" stroke="#2e2016" stroke-width="7" stroke-linecap="round"></path>
    <path d="M316 276 Q346 266 372 276" fill="none" stroke="#2e2016" stroke-width="7" stroke-linecap="round"></path>

    
    <path d="M234 308 Q250 297 264 298 Q278 299 288 309 Q276 321 261 321 Q247 321 234 308 Z" fill="#fbfdfd"></path>
    <path d="M312 309 Q322 299 336 298 Q350 297 366 308 Q354 321 339 321 Q324 321 312 309 Z" fill="#fbfdfd"></path>
    <g clip-path="url(#l-eyeL)"><circle cx="262" cy="309" r="12" fill="#43301f"></circle><circle cx="262" cy="309" r="6" fill="#160f08"></circle><circle cx="258" cy="305" r="3.4" fill="#fff"></circle></g>
    <g clip-path="url(#l-eyeR)"><circle cx="338" cy="309" r="12" fill="#43301f"></circle><circle cx="338" cy="309" r="6" fill="#160f08"></circle><circle cx="334" cy="305" r="3.4" fill="#fff"></circle></g>
    <path d="M232 307 Q250 297 264 298 Q280 299 290 308" fill="none" stroke="#241a16" stroke-width="5.5" stroke-linecap="round"></path>
    <path d="M310 308 Q320 299 336 298 Q352 297 368 307" fill="none" stroke="#241a16" stroke-width="5.5" stroke-linecap="round"></path>

    
    <path d="M298 332 C293 344 287 353 294 359 Q300 364 312 356" fill="none" stroke="#bd8a66" stroke-width="5" stroke-linecap="round" stroke-linejoin="round"></path>
    <circle cx="291" cy="356" r="2.6" fill="#e0b53a"></circle>

    
    <path d="M264 380 Q300 410 336 380 Q300 392 264 380 Z" fill="#ffffff" stroke="#241a16" stroke-width="6" stroke-linejoin="round"></path>
    <path d="M264 380 Q300 388 336 380" fill="none" stroke="#241a16" stroke-width="4"></path>
    <path d="M272 398 Q300 406 328 398" fill="none" stroke="#b05a48" stroke-width="5" stroke-linecap="round"></path>
  </g>
</svg>